<svg width="85" height="84" viewBox="0 0 85 84" fill="none" xmlns="http://www.w3.org/2000/svg">
<path d="M25.7423 84C18.6385 84 11.784 80.9466 6.98577 75.7122C2.74838 71.0386 0.380371 64.9941 0.380371 58.638V25.362C0.380371 19.6914 2.18749 14.3323 5.6771 9.84566C10.5376 3.6142 17.8284 0 25.7423 0H59.0184C65.8107 0 72.1668 2.61715 76.965 7.41537C81.7632 12.2136 84.3804 18.5697 84.3804 25.362V58.638C84.3804 65.4303 81.7632 71.7863 76.965 76.5846C72.1668 81.3828 65.8107 84 59.0184 84H25.7423Z" fill="url(#paint0_linear_31_2123)"/>
<path d="M25.7423 82.0683C19.137 82.0683 12.8433 79.2641 8.41899 74.4036C4.49317 70.1039 2.31213 64.4956 2.31213 58.638V25.362C2.31213 20.1276 3.99457 15.1424 7.23492 11.0297C11.7216 5.23442 18.4515 1.93176 25.7423 1.93176H59.0183C65.2498 1.93176 71.1696 4.36203 75.5939 8.78637C80.0182 13.2107 82.4485 19.0683 82.4485 25.362V58.638C82.4485 64.8695 80.0182 70.7894 75.5939 75.2137C71.1696 79.638 65.3121 82.0683 59.0183 82.0683H25.7423Z" fill="url(#paint1_linear_31_2123)"/>
<path d="M60.3269 76.7715H24.4961C19.5732 76.7715 15.0866 74.6528 12.0332 71.2878C9.29132 68.2967 7.67114 64.3086 7.67114 59.9466V24.1157C7.67114 20.2522 8.97987 16.638 11.2232 13.7715C14.2766 9.78335 19.1371 7.22845 24.5584 7.22845H60.3893C65.0629 7.22845 69.238 9.09791 72.2914 12.1513C75.3448 15.2047 77.2142 19.4421 77.2142 24.0534V59.8843C77.2142 64.5579 75.3448 68.7329 72.2914 71.7863C69.1757 74.9021 64.9382 76.7715 60.3269 76.7715Z" fill="url(#paint2_radial_31_2123)"/>
<path opacity="0.5" fill-rule="evenodd" clip-rule="evenodd" d="M10.1015 73.0949C13.6535 76.9584 18.7009 79.2017 23.9353 79.2017H60.8879C65.873 79.2017 70.5466 77.27 74.0985 73.718C77.6504 70.2284 79.5822 65.4925 79.5822 60.5074V23.5548C79.5822 18.5696 77.6504 13.8961 74.0985 10.3441C70.6089 6.79219 65.873 4.86041 60.8879 4.86041H23.9353C18.1401 4.86041 12.7187 7.47761 9.16681 12.0889C6.61192 15.3916 5.24097 19.3797 5.24097 23.5548V60.5074C5.24097 65.181 6.9858 69.6676 10.1015 73.0949ZM24.4961 76.7716H60.3269C64.9382 76.7716 69.1757 74.9022 72.2915 71.7864C75.3449 68.733 77.2142 64.558 77.2142 59.8844V24.0535C77.2142 19.4422 75.3449 15.2048 72.2915 12.1514C69.238 9.098 65.0629 7.22855 60.3893 7.22855H24.5585C19.1371 7.22855 14.2766 9.78345 11.2232 13.7716C8.9799 16.638 7.67117 20.2523 7.67117 24.1158V59.9467C7.67117 64.3087 9.29135 68.2968 12.0332 71.2879C15.0866 74.6529 19.5732 76.7716 24.4961 76.7716ZM21.1933 18.4397C25.2465 15.8985 27.5097 12.2075 26.2483 10.1954C24.9868 8.18338 20.6785 8.61223 16.6252 11.1534C12.572 13.6945 10.3087 17.3856 11.5701 19.3977C12.8315 21.4097 17.14 20.9808 21.1933 18.4397ZM29.9175 18.3204C31.6624 17.1987 32.6594 15.5786 32.0986 14.6439C31.5377 13.7092 29.6059 13.8961 27.8611 15.0178C26.1163 16.1394 25.1193 17.7596 25.6801 18.6944C26.241 19.6291 28.1727 19.4421 29.9175 18.3204Z" fill="white"/>
<g clip-path="url(#clip0_31_2123)">
<path d="M44.35 56.3425C34.5912 55.9003 23.399 59.7114 25.8498 65.0114C28.3134 70.344 48.0369 69.6852 55.0902 65.5766C60.604 62.3644 52.2498 56.7023 44.3499 56.345L44.35 56.3425Z" fill="#FFD03B"/>
<path d="M42.9029 56.5464C34.2495 56.5073 24.5019 59.6196 26.884 63.424C29.2818 67.2513 46.7069 66.1951 52.7813 62.9866C57.5288 60.4763 49.9083 56.5792 42.9029 56.5464Z" fill="#56BFB3"/>
<path d="M28.0421 62.3902C28.6623 62.4267 29.1868 62.0869 29.2136 61.6312C29.2404 61.1755 28.7594 60.7764 28.1392 60.7399C27.519 60.7034 26.9945 61.0433 26.9677 61.499C26.9408 61.9547 27.4219 62.3537 28.0421 62.3902Z" fill="#B35E3B"/>
<path d="M27.9754 62.0237C28.5309 62.0564 28.9982 61.7944 29.0192 61.4384C29.0401 61.0825 28.6068 60.7674 28.0513 60.7347C27.4958 60.702 27.0285 60.9641 27.0076 61.32C26.9866 61.676 27.42 61.991 27.9754 62.0237Z" fill="#FFA43B"/>
<path d="M30.5914 64.2695C31.2749 64.3098 31.853 63.9358 31.8825 63.4342C31.9121 62.9327 31.3819 62.4935 30.6983 62.4532C30.0147 62.413 29.4366 62.787 29.4071 63.2885C29.3776 63.7901 29.9078 64.2293 30.5914 64.2695Z" fill="#B35E3B"/>
<path d="M30.5173 63.8634C31.1294 63.8995 31.6443 63.6117 31.6673 63.2207C31.6903 62.8297 31.2127 62.4835 30.6006 62.4475C29.9885 62.4115 29.4737 62.6992 29.4506 63.0902C29.4276 63.4812 29.9052 63.8274 30.5173 63.8634Z" fill="#FFA43B"/>
<path d="M34.763 65.1764C35.5073 65.2202 36.1366 64.813 36.1688 64.267C36.2009 63.7209 35.6237 63.2428 34.8794 63.199C34.1352 63.1551 33.5058 63.5623 33.4737 64.1083C33.4415 64.6544 34.0188 65.1326 34.763 65.1764Z" fill="#B35E3B"/>
<path d="M34.6812 64.7355C35.3472 64.7747 35.9075 64.4611 35.9326 64.0351C35.9577 63.609 35.4381 63.2318 34.772 63.1926C34.106 63.1534 33.5457 63.467 33.5206 63.8931C33.4955 64.3191 34.0152 64.6963 34.6812 64.7355Z" fill="#FFA43B"/>
<path d="M47.2979 58.6494L45.1137 36.5877L41.782 36.7663L40.1698 58.8274C40.1536 58.9367 40.147 59.049 40.1527 59.1595C40.2233 60.4985 41.8839 61.4976 43.8617 61.3936C45.8394 61.2896 47.3829 60.1166 47.3099 58.7775C47.3075 58.7357 47.3027 58.6914 47.2979 58.6494Z" fill="#FFD03B"/>
<path d="M52.8821 31.1079L43.6316 28.4815L42.7164 41.3646L51.8897 41.476C53.714 41.6495 55.4146 39.4718 55.6861 36.6075C55.9599 33.7457 54.704 31.2813 52.8797 31.1078L52.8821 31.1079Z" fill="#FFD03B"/>
<path d="M47.2552 35.1608C47.0457 38.7195 45.0501 41.4971 42.7973 41.3645C40.5419 41.2317 38.886 38.2392 39.0931 34.6804C39.3026 31.1217 41.2981 28.3441 43.551 28.4767C45.8039 28.6093 47.4624 31.5996 47.2553 35.1584L47.2552 35.1608Z" fill="#B35E3B"/>
<path d="M40.0978 34.671C40.0978 34.671 36.889 32.5521 35.0475 26.7222C33.0061 20.2511 40.4073 13.9758 46.6968 15.1861C52.9863 16.3964 52.5416 22.371 48.63 24.7859C44.7185 27.1984 39.8525 28.3938 40.0978 34.671Z" fill="#56BFFF"/>
<path d="M40.0978 34.671C40.2886 34.5083 48.5105 28.9793 54.6543 29.2528C60.7982 29.5263 57.8638 45.4648 48.9931 48.6998C41.0061 51.6121 48.6584 35.6206 40.0978 34.671Z" fill="#56BFFF"/>
<path d="M40.0978 34.6709C40.0978 34.6709 42.5597 48.7693 36.0567 49.9786C29.5537 51.1878 26.4316 36.1982 29.7218 35.226C33.0121 34.2538 37.0151 40.6886 40.0978 34.6709Z" fill="#56BFFF"/>
<path d="M44.6038 35.1003C44.1997 39.3431 41.8531 42.5923 39.3639 42.3552C36.8747 42.118 35.188 38.4844 35.5922 34.2392C35.9988 29.994 38.3429 26.7471 40.832 26.9843C43.3212 27.2214 45.008 30.855 44.6038 35.1003Z" fill="#FF9F3B"/>
<path d="M43.5607 34.968C43.1844 38.9063 41.0765 41.9271 38.8528 41.7154C36.6291 41.5036 35.1323 38.1384 35.5086 34.2001C35.885 30.2618 37.9928 27.241 40.2165 27.4527C42.4403 27.6644 43.937 31.0297 43.5607 34.968Z" fill="#FFD03B"/>
</g>
<defs>
<linearGradient id="paint0_linear_31_2123" x1="42.3981" y1="84.0273" x2="42.3981" y2="-0.0061057" gradientUnits="userSpaceOnUse">
<stop stop-color="#706F6F"/>
<stop offset="0.0615822" stop-color="#7D7D7D"/>
<stop offset="0.2377" stop-color="#9F9E9E"/>
<stop offset="0.4182" stop-color="#B9B8B8"/>
<stop offset="0.6026" stop-color="#CBCBCB"/>
<stop offset="0.7933" stop-color="#D6D6D6"/>
<stop offset="1" stop-color="#DADADA"/>
</linearGradient>
<linearGradient id="paint1_linear_31_2123" x1="42.398" y1="82.0879" x2="42.398" y2="1.93332" gradientUnits="userSpaceOnUse">
<stop stop-color="#9D9D9C"/>
<stop offset="1" stop-color="#EDEDED"/>
</linearGradient>
<radialGradient id="paint2_radial_31_2123" cx="0" cy="0" r="1" gradientUnits="userSpaceOnUse" gradientTransform="translate(42.3981 42.0105) rotate(-90) scale(34.7638 34.7638)">
<stop stop-color="white"/>
<stop offset="0.68" stop-color="#E4F2F6"/>
<stop offset="1" stop-color="#ACD7E4"/>
</radialGradient>
<clipPath id="clip0_31_2123">
<rect width="31.2891" height="54.1771" fill="white" transform="translate(28.4169 14.0389) rotate(3.36889)"/>
</clipPath>
</defs>
</svg>
